<?xml version="1.0" standalone="no"?>
<!DOCTYPE svg PUBLIC "-//W3C//DTD SVG 20010904//EN"
 "http://www.w3.org/TR/2001/REC-SVG-20010904/DTD/svg10.dtd">
<svg version="1.0" xmlns="http://www.w3.org/2000/svg"
 width="700.000000pt" height="700.000000pt" viewBox="0 0 700.000000 700.000000"
 preserveAspectRatio="xMidYMid meet">
<metadata>
Created by potrace 1.11, written by Peter Selinger 2001-2013
</metadata>
<g transform="translate(0.000000,700.000000) scale(0.100000,-0.100000)"
fill="#000000" stroke="none">
<path d="M9 6993 c-1 -5 -2 -792 -2 -1751 l-2 -1743 33 38 c18 21 44 52 57 68
40 50 257 269 307 309 30 24 64 66 92 114 24 43 68 99 98 127 79 74 229 210
258 235 47 41 473 455 654 636 213 213 308 312 471 493 99 110 434 449 709
718 32 32 79 85 104 118 147 191 266 318 507 542 l110 102 -1697 1 c-934 0
-1698 -3 -1699 -7z"/>
<path d="M3420 6992 c0 -13 120 -144 251 -276 112 -112 118 -120 103 -137 -15
-17 -19 -17 -52 -4 -54 23 -162 108 -217 172 -27 31 -61 70 -75 86 l-25 28
-54 -53 c-30 -29 -79 -91 -109 -138 -62 -96 -119 -169 -171 -219 l-36 -33 -6
31 c-4 18 -9 34 -11 36 -2 3 -43 -24 -91 -59 l-86 -63 46 -38 46 -39 -74 -69
c-112 -104 -171 -153 -206 -171 -17 -9 -53 -36 -78 -62 -37 -36 -45 -50 -40
-67 19 -62 20 -62 -49 -107 -37 -23 -69 -40 -72 -38 -2 3 12 41 32 84 42 91
66 155 60 161 -2 2 -30 -30 -63 -71 -44 -57 -66 -97 -86 -158 -15 -46 -31 -88
-35 -94 -4 -6 -24 -11 -46 -10 -33 1 -41 -3 -55 -29 -72 -134 -146 -222 -265
-319 -92 -75 -176 -169 -188 -211 -6 -22 -13 -42 -14 -44 -2 -2 -19 10 -39 28
-20 17 -40 31 -45 31 -14 0 -53 -87 -45 -100 4 -7 16 -10 26 -7 31 8 21 -6
-27 -38 -24 -16 -91 -79 -147 -139 -56 -60 -129 -134 -162 -165 -129 -120
-252 -245 -304 -307 -50 -60 -57 -65 -85 -60 -17 3 -36 2 -41 -2 -16 -11 -107
-138 -150 -210 -48 -78 -153 -178 -230 -216 -36 -19 -65 -42 -80 -65 -30 -47
-160 -212 -202 -256 -11 -11 -40 -38 -65 -60 l-46 -39 41 -30 c54 -39 91 -70
207 -175 132 -120 548 -536 590 -591 55 -71 354 -359 480 -462 75 -61 141
-127 194 -192 44 -54 124 -139 179 -189 55 -51 160 -150 232 -222 73 -71 189
-185 259 -253 70 -68 145 -149 168 -180 62 -85 95 -121 152 -166 64 -51 65
-51 110 -111 21 -27 68 -79 104 -115 37 -36 96 -98 131 -138 35 -40 86 -90
115 -111 85 -63 247 -223 283 -278 18 -29 35 -53 38 -53 2 0 29 22 59 48 30
27 93 73 140 102 73 47 88 61 108 105 27 61 207 242 283 285 67 38 126 98 164
163 44 76 131 167 161 167 31 0 40 7 70 50 46 67 126 156 290 321 182 183 235
238 330 349 36 41 70 78 76 82 7 4 40 38 75 75 177 187 253 264 354 353 61 53
169 157 240 230 201 205 237 240 315 310 41 36 145 136 234 223 169 168 217
210 281 246 60 34 133 62 140 52 3 -5 -12 -31 -34 -58 -39 -48 -307 -321 -501
-510 -164 -159 -574 -576 -695 -707 -141 -152 -144 -156 -441 -442 -137 -133
-289 -275 -339 -316 -49 -42 -106 -95 -125 -119 -32 -40 -93 -104 -330 -349
-45 -47 -112 -119 -149 -159 -36 -41 -88 -95 -115 -120 -27 -26 -110 -108
-185 -185 -75 -76 -193 -196 -263 -267 l-128 -129 1793 2 1792 3 1 3493 1
3492 -1789 0 c-983 0 -1788 -4 -1788 -8z m788 -1954 c26 -13 53 -35 59 -49 18
-35 16 -140 -6 -260 -11 -57 -22 -131 -25 -164 -4 -33 -8 -80 -11 -105 -21
-221 -28 -273 -40 -330 -7 -36 -16 -85 -19 -110 -3 -25 -12 -99 -20 -165 -16
-121 -21 -179 -31 -296 -3 -35 -7 -89 -10 -119 -21 -223 -28 -346 -28 -495 0
-122 8 -274 17 -320 2 -11 7 -41 10 -68 10 -66 45 -164 104 -287 52 -109 112
-275 112 -310 0 -17 -7 -20 -42 -21 -112 -3 -184 3 -214 17 -59 28 -182 190
-230 303 -40 91 -40 93 -67 166 -34 94 -39 111 -52 190 -3 17 -10 55 -16 85
-5 30 -12 83 -15 117 l-6 61 39 -5 c21 -2 47 -6 58 -7 12 -1 28 -18 40 -44 23
-47 39 -55 29 -14 -12 50 -23 60 -99 87 l-76 28 6 86 c8 132 16 185 28 199 13
16 74 9 118 -13 15 -8 32 -15 37 -15 5 0 16 27 25 61 14 54 14 66 0 115 l-16
54 28 22 c16 13 42 31 59 40 l31 17 -27 1 c-24 0 -29 6 -41 48 -22 72 6 112
75 107 l43 -4 -35 16 c-47 20 -102 21 -133 0 -20 -13 -25 -23 -22 -54 1 -21
-2 -49 -7 -63 -6 -14 -11 -43 -11 -65 l-2 -40 -55 3 c-30 2 -58 8 -61 13 -3 5
-2 35 3 67 4 31 11 81 15 111 l8 54 72 21 72 20 36 74 c30 62 35 79 27 102 -6
15 -9 59 -8 99 2 39 1 71 -1 71 -12 0 -94 -63 -108 -82 -8 -13 -15 -36 -15
-53 l1 -30 39 45 c43 50 44 49 31 -30 -16 -96 -22 -123 -26 -131 -5 -7 -85 -2
-93 6 -5 5 -4 82 3 145 2 19 6 71 10 115 4 44 8 94 10 110 2 17 7 64 10 105 3
41 8 90 10 108 3 17 0 32 -5 32 -6 0 -10 -4 -10 -9 0 -6 -15 -36 -34 -68 -19
-33 -38 -72 -42 -88 -4 -16 -13 -40 -20 -54 -12 -22 -113 -328 -176 -531 -22
-70 -34 -91 -52 -89 -6 1 -23 1 -38 0 l-26 -1 29 -52 c16 -29 29 -56 29 -59 0
-4 -20 -12 -45 -18 -25 -6 -45 -16 -45 -21 0 -6 16 -20 35 -31 40 -24 43 -37
17 -69 l-18 -23 -23 38 c-12 21 -24 35 -28 32 -8 -9 -33 -120 -27 -128 2 -4
13 -5 23 -2 16 4 22 -3 30 -34 6 -21 11 -44 11 -50 0 -13 -69 -47 -78 -39 -2
3 -6 22 -9 43 -6 47 -9 50 -21 26 -15 -28 -26 -107 -14 -99 12 7 58 -28 73
-55 22 -42 19 -59 -20 -98 -47 -47 -45 -42 -72 -201 -10 -60 -34 -88 -139
-158 -30 -21 -80 -56 -111 -79 -61 -47 -55 -47 -197 -12 -46 11 -111 35 -145
52 l-62 32 -17 75 c-10 41 -22 111 -28 155 -6 44 -13 94 -15 110 -22 155 -22
1048 -1 1084 2 3 7 40 10 81 8 84 10 103 26 210 7 41 14 91 17 110 2 19 25
119 50 223 39 160 50 192 77 223 27 31 37 36 73 36 53 -1 150 -50 207 -105 35
-34 46 -53 56 -99 13 -55 12 -60 -19 -138 -31 -80 -58 -173 -66 -227 -5 -37
-11 -70 -34 -183 -17 -86 -28 -156 -37 -244 -15 -148 -23 -883 -11 -981 9 -76
37 -199 47 -209 5 -5 18 2 30 15 30 32 113 167 160 261 65 128 196 466 275
712 40 127 85 263 98 301 55 156 129 359 192 525 36 96 80 213 97 260 41 110
111 250 140 277 48 45 199 46 286 1z m-362 -1697 c-7 -11 -156 -74 -162 -68
-3 2 4 20 15 38 16 27 29 35 58 39 44 6 95 1 89 -9z"/>
<path d="M3954 4375 c-38 -73 -47 -113 -34 -146 15 -35 15 -36 -45 -57 -43
-16 -49 -22 -61 -62 -19 -63 -18 -65 19 -41 17 12 58 35 90 53 31 17 57 34 57
38 0 4 -11 20 -24 35 l-25 28 25 66 c14 36 24 79 22 96 l-3 30 -21 -40z"/>
<path d="M2592 3900 c-16 -26 -16 -76 1 -83 35 -13 82 36 69 73 -13 34 -51 40
-70 10z"/>
<path d="M2595 3754 c-18 -38 -32 -180 -21 -209 4 -13 16 -9 61 21 30 20 55
39 55 41 0 2 -16 1 -36 -3 -24 -4 -39 -3 -44 6 -8 14 -4 65 11 124 14 54 -3
68 -26 20z"/>
<path d="M2664 3766 c-15 -60 14 -127 32 -74 12 34 12 40 -3 71 -16 33 -21 34
-29 3z"/>
<path d="M2577 3483 c-3 -5 -6 -46 -7 -93 -1 -47 -3 -113 -4 -148 -1 -35 1
-65 4 -67 3 -2 18 20 33 49 26 50 98 116 126 116 6 0 11 5 11 10 0 13 -25 13
-73 -1 -22 -6 -40 -9 -42 -7 -2 2 4 25 13 51 16 45 16 47 -3 62 -33 26 -54 35
-58 28z"/>
<path d="M3819 3124 c-13 -15 -44 -36 -68 -46 l-43 -20 38 -41 c59 -62 63 -67
74 -88 19 -35 30 -20 30 41 0 51 4 65 24 85 15 15 31 22 41 19 23 -9 55 -78
57 -122 1 -49 7 -58 23 -35 11 16 10 30 -5 85 -25 90 -32 100 -83 126 -56 28
-58 28 -88 -4z"/>
<path d="M2609 3054 c-10 -12 -13 -41 -12 -93 2 -100 10 -138 29 -145 14 -5
15 1 10 46 -4 29 -11 57 -16 62 -13 13 -13 66 1 105 13 37 8 49 -12 25z"/>
<path d="M3841 2764 c-1 -6 -20 -24 -43 -39 l-42 -28 24 -16 c43 -28 60 -50
60 -78 0 -18 3 -24 10 -17 18 18 28 69 18 87 -5 10 -13 36 -17 60 -5 23 -9 37
-10 31z"/>
<path d="M9 3480 c-1 -3 -2 -785 -2 -1738 l-2 -1732 1699 0 1700 0 -30 32
c-16 18 -70 75 -121 128 -179 185 -235 246 -330 364 -99 121 -140 158 -242
211 -75 40 -95 56 -170 145 -35 41 -138 152 -228 246 -90 93 -174 184 -186
202 -12 17 -68 75 -125 129 -151 143 -363 354 -557 553 -225 231 -551 544
-645 618 -104 83 -229 217 -264 282 -46 90 -99 151 -268 312 -88 84 -176 175
-194 203 -19 27 -34 48 -35 45z"/>
</g>
</svg>
