<?xml version="1.0" standalone="no"?>
<!DOCTYPE svg PUBLIC "-//W3C//DTD SVG 20010904//EN"
 "http://www.w3.org/TR/2001/REC-SVG-20010904/DTD/svg10.dtd">
<svg version="1.0" xmlns="http://www.w3.org/2000/svg"
 width="1024.000000pt" height="1024.000000pt" viewBox="0 0 1024.000000 1024.000000"
 preserveAspectRatio="xMidYMid meet">
<metadata>
Created by potrace 1.14, written by Peter Selinger 2001-2017
</metadata>
<g transform="translate(0.000000,1024.000000) scale(0.100000,-0.100000)"
fill="#000000" stroke="none">
<path d="M5805 10210 c-126 -32 -230 -68 -406 -141 -68 -28 -142 -58 -164 -67
-140 -58 -750 -373 -1050 -544 -44 -25 -96 -55 -116 -66 -116 -65 -370 -214
-386 -226 -3 -3 133 -416 140 -422 3 -3 37 11 77 31 181 91 384 161 492 169
72 6 118 -9 167 -50 100 -86 125 -246 125 -804 0 -274 -6 -527 -19 -770 -3
-47 -7 -137 -10 -200 -6 -126 -12 -246 -20 -385 -3 -49 -7 -137 -10 -195 -3
-58 -7 -139 -10 -180 -2 -41 -7 -127 -10 -190 -4 -63 -8 -135 -10 -160 -2 -25
-7 -110 -10 -190 -4 -80 -9 -163 -11 -185 -5 -59 -5 -467 -1 -490 3 -11 8 -49
12 -85 18 -169 101 -385 180 -466 5 -6 24 -26 41 -46 51 -58 130 -115 186
-134 56 -20 225 -25 303 -10 240 46 627 237 1077 533 186 122 490 333 633 441
6 4 53 39 105 77 52 38 125 93 163 122 l67 52 -94 186 c-53 102 -98 190 -101
195 -3 5 -33 -8 -68 -29 -34 -21 -116 -64 -182 -96 -312 -150 -384 -170 -489
-135 -101 33 -178 187 -194 390 -10 134 -3 633 13 880 2 30 6 123 10 205 4 83
8 173 10 200 1 28 6 115 9 195 4 80 9 163 11 185 2 22 7 92 10 155 11 198 15
274 20 315 2 22 7 85 10 140 4 55 9 114 10 130 24 200 24 1123 1 1240 -2 11
-7 50 -10 86 -18 186 -80 302 -185 347 -64 27 -191 24 -316 -8z"/>
<path d="M8580 7300 c-72 -14 -82 -17 -140 -40 -253 -100 -436 -354 -441 -615
-1 -27 -1 -423 0 -880 1 -735 -3 -1166 -13 -1275 -2 -19 -7 -75 -11 -124 -3
-49 -8 -96 -10 -105 -1 -9 -6 -45 -10 -81 -3 -36 -8 -72 -10 -80 -2 -8 -7 -35
-10 -60 -3 -25 -8 -52 -10 -60 -2 -8 -7 -31 -10 -50 -27 -159 -109 -407 -192
-575 -147 -299 -326 -534 -583 -765 -219 -197 -436 -337 -710 -457 -52 -23
-188 -75 -192 -74 -2 1 -37 -10 -78 -24 -41 -14 -93 -30 -115 -35 -22 -4 -49
-11 -60 -13 -43 -11 -121 -29 -140 -32 -92 -17 -147 -26 -190 -31 -27 -3 -61
-7 -75 -9 -179 -25 -736 -25 -869 0 -9 1 -38 6 -66 9 -109 14 -135 19 -270 47
-183 38 -166 34 -291 73 -97 30 -189 63 -279 99 -89 36 -313 154 -395 208
-167 109 -237 166 -385 314 -343 342 -586 757 -675 1155 -48 218 -63 310 -86
560 -4 36 -8 448 -10 915 -6 1319 -8 1421 -27 1487 -70 242 -238 410 -497 495
-74 24 -261 25 -350 1 -75 -19 -208 -80 -250 -114 -44 -36 -126 -119 -153
-156 -48 -66 -195 -373 -279 -583 -93 -234 -199 -588 -234 -785 -2 -14 -9 -48
-15 -76 -5 -28 -11 -61 -14 -75 -48 -302 -60 -460 -60 -779 0 -218 9 -448 20
-490 2 -8 6 -42 10 -75 7 -66 20 -158 40 -275 5 -28 22 -110 46 -215 5 -22 12
-51 15 -65 3 -14 9 -38 14 -55 5 -16 24 -79 41 -140 33 -115 118 -361 150
-430 10 -22 30 -69 44 -105 120 -290 389 -746 592 -1000 229 -287 418 -486
687 -721 171 -148 431 -334 657 -469 224 -135 602 -314 799 -379 36 -12 72
-26 81 -31 20 -11 350 -110 387 -116 15 -3 33 -7 41 -9 13 -5 135 -32 181 -41
14 -2 35 -7 48 -9 50 -12 192 -34 282 -45 52 -6 109 -13 125 -15 194 -26 824
-26 985 0 14 2 52 7 85 10 33 3 85 10 115 15 30 5 69 11 85 13 65 10 212 38
245 47 39 10 164 40 193 45 36 8 292 86 342 104 28 11 84 32 125 46 82 30 82
30 255 105 110 48 303 144 400 199 136 78 193 113 300 184 270 180 488 359
720 592 237 236 332 346 498 575 42 58 81 110 87 117 5 7 10 14 10 17 0 3 19
33 43 68 317 465 594 1167 686 1738 6 36 13 76 16 90 3 14 8 49 11 79 3 30 8
64 10 75 2 11 6 50 9 86 3 36 10 106 14 155 8 89 6 642 -3 700 -2 17 -7 62
-11 100 -12 117 -23 203 -35 275 -16 93 -18 102 -40 205 -12 55 -23 111 -26
125 -15 77 -109 395 -148 497 -121 320 -284 667 -353 751 -103 125 -216 201
-368 245 -86 25 -223 32 -305 17z"/>
</g>
</svg>
