<?xml version="1.0" encoding="UTF-8"?>
<svg width="88px" height="28px" viewBox="0 0 88 28" version="1.1" xmlns="http://www.w3.org/2000/svg" xmlns:xlink="http://www.w3.org/1999/xlink">
    <title>logo</title>
    <defs>
        <polygon id="path-1" points="0 0 10 0 10 16 0 16"></polygon>
        <polygon id="path-3" points="0 0 26 0 26 20 0 20"></polygon>
    </defs>
    <g id="logo" stroke="none" stroke-width="1" fill="none" fill-rule="evenodd">
        <g id="Group-7">
            <g id="Group-3" transform="translate(9.000000, 0.000000)">
                <mask id="mask-2" fill="white">
                    <use xlink:href="#path-1"></use>
                </mask>
                <g id="Clip-2"></g>
                <path d="M0,2.93824392 C0,2.93824392 2.75207301,1.28257381 4.49634463,0.546720433 C6.24012561,-0.189132948 7.01535744,-0.299510955 7.17040381,0.951439792 C7.32545017,2.20239054 7.24792699,4.18919467 7.17040381,5.03542606 C7.09337128,5.88119171 6.86031107,10.1123487 6.89956332,10.9953727 C6.93783426,11.877931 7.2091654,12.6137844 8.1394436,12.2090651 C9.0697218,11.8048114 9.45733772,11.546797 9.45733772,11.546797 L10,12.6137844 C10,12.6137844 7.28668858,14.7109666 5.81423875,15.4100273 C5.81423875,15.4100273 4.10872872,16.440222 3.29473529,15.777954 C2.48074187,15.1156859 2.36445709,14.1595422 2.44198028,12.6505771 C2.51950346,11.1425434 2.7908346,6.83780111 2.75207301,5.51326502 C2.71331142,4.18919467 2.67454983,3.74721691 2.20941073,3.56371929 C1.74427163,3.37929022 0.387615917,4.1151436 0.387615917,4.1151436 L0,2.93824392 Z" id="Fill-1" fill="#FEFEFE" mask="url(#mask-2)"></path>
            </g>
            <g id="Group-6" transform="translate(0.000000, 8.000000)">
                <mask id="mask-4" fill="white">
                    <use xlink:href="#path-3"></use>
                </mask>
                <g id="Clip-5"></g>
                <path d="M24.556852,1.21345019 C24.4975766,1.06309895 24.4200984,0.921537469 24.3258177,0.792466709 C23.9771658,0.313193206 23.411015,0 22.7692529,0 C21.7774387,0 20.961584,0.745742168 20.8612358,1.70290132 C20.8542347,1.76813063 20.8505008,1.83474779 20.8505008,1.9022902 C20.8505008,1.9698326 20.8542347,2.03598715 20.8612358,2.10167908 L20.8612358,6.39663583 C20.8612358,7.78171775 20.744085,8.9026441 20.5097835,9.76034012 C20.1938032,10.8590607 19.6309195,11.814832 18.8197322,12.627654 C17.3686497,14.092769 15.4582989,14.8250952 13.0877464,14.8250952 C11.9344415,14.8250952 10.87075,14.6594776 9.89760528,14.3296301 C8.79797508,13.9539833 7.89670772,13.3960645 7.19380318,12.6540233 C6.32847449,11.7519158 5.7515887,10.7873548 5.46361254,9.76034012 C5.33712706,9.29587043 5.247047,8.77311072 5.19290561,8.19252361 C5.15696693,7.72805392 5.13876423,7.12942466 5.13876423,6.39663583 L5.13876423,1.94762688 C5.13876423,1.94161283 5.1396977,1.9360614 5.1396977,1.93004735 C5.1396977,1.92449592 5.13876423,1.91848187 5.13876423,1.91293044 C5.1294295,0.870649355 4.27483574,0.0277571527 3.22094568,0.0277571527 C2.55864718,0.0277571527 1.97476035,0.360380366 1.62984239,0.866023163 C1.55189746,0.980290109 1.48795462,1.10380944 1.43614691,1.23380544 C0.450400316,3.13378254 -0.0779449251,5.30624235 0.00933472157,7.6096234 C0.26183894,14.2889196 5.74365418,19.7302467 12.4814562,19.9902387 C19.8974258,20.2756748 25.9999971,14.4017987 25.9999971,7.11462085 C25.9999971,4.9870351 25.4781891,2.98158082 24.556852,1.21345019" id="Fill-4" fill="#FEFEFE" mask="url(#mask-4)"></path>
            </g>
        </g>
        <text id="URVEGA" font-family="UTMAvoBold, UTM Avo" font-size="14" font-weight="bold" line-spacing="11" fill="#FFFFFF">
            <tspan x="29.5" y="24">URVEGA</tspan>
        </text>
    </g>
</svg>