<?xml version="1.0" encoding="UTF-8"?>
<svg width="1737px" height="857px" viewBox="0 0 1737 857" version="1.1" xmlns="http://www.w3.org/2000/svg" xmlns:xlink="http://www.w3.org/1999/xlink">
    <!-- Generator: Sketch 42 (36781) - http://www.bohemiancoding.com/sketch -->
    <title>Group 2</title>
    <desc>Created with Sketch.</desc>
    <defs></defs>
    <g id="Page-1" stroke="none" stroke-width="1" fill="none" fill-rule="evenodd">
        <g id="Urvega_logo" transform="translate(-922.000000, -29.000000)" fill-rule="nonzero" fill="#FFFFFF">
            <g id="Group" transform="translate(1329.700000, 443.000000) scale(-1, 1) rotate(-180.000000) translate(-1329.700000, -443.000000) translate(0.700000, 0.000000)">
                <g id="Group-2" transform="translate(921.000000, 0.000000)">
                    <path d="M145.655888,853.085974 C98.455272,838.896832 75.5788999,823.549392 44.5944467,784.746432 C39.0925345,777.507074 32.1427505,769.398993 29.2470073,766.50325 C19.1119057,756.368148 0.868722988,712.063276 0.868722988,697.294985 C0.868722988,680.499674 16.7953111,665.152234 42.8570007,657.044153 C54.1503996,653.858835 64.5750754,649.804795 66.0229471,648.646498 C68.9186904,646.329903 113.223563,637.063524 121.331644,637.063524 C127.123131,637.063524 120.462921,649.225646 107.142502,663.993937 C101.351015,670.074998 92.9533597,681.078822 88.0305961,688.607755 L79.0537919,702.507323 L85.1348528,724.514972 L91.2159137,746.522621 L126.254408,769.109419 C166.794814,794.881534 181.563104,802.120892 196.910544,802.989615 C207.33522,803.568764 208.203943,802.700041 214.574578,790.537919 C223.551382,772.873885 222.972234,746.812195 212.257983,651.542241 C200.67501,548.743354 200.67501,477.508069 212.547558,410.03725 C221.234788,361.678337 245.848606,322.875377 278.28093,307.817512 C291.022201,301.736451 296.234539,300.867728 307.238363,302.605174 C326.060695,305.500917 356.176425,318.242188 366.601101,328.087715 C379.92152,340.539411 425.963838,376.446628 428.859582,376.446628 C432.624048,376.446628 462.16063,408.299804 479.535089,431.465751 C488.511893,443.338298 502.411461,460.423184 510.229968,469.110413 L524.708685,484.747427 L533.685489,465.345947 C538.608252,454.631697 548.45378,431.176176 555.693138,413.222568 C567.85526,383.396412 578.279936,362.836635 582.913125,359.072168 C584.071422,358.203445 590.442057,349.516215 597.102267,339.960263 C603.472902,330.114735 611.291409,320.269208 613.897578,318.242188 C618.241193,314.477722 618.530767,315.346445 616.503747,325.77112 C613.608004,343.435155 584.940145,444.207021 582.62355,445.944467 C577.990361,449.129785 570.751003,495.751252 570.461429,524.129536 C570.171854,554.534841 576.54249,589.862909 583.202699,593.627375 C584.650571,594.785672 591.600355,611.001835 598.260564,630.11374 C609.843537,663.125214 610.422686,666.020957 610.422686,697.874134 C610.422686,728.569012 609.843537,732.333479 602.314605,747.10177 C597.681416,755.788999 586.388017,771.426013 576.832064,781.850689 L559.457604,800.67302 L550.770374,790.537919 C546.137185,785.036007 540.924847,777.796648 539.76655,774.611331 C538.318678,771.426013 535.13336,740.151986 532.527192,705.113492 C520.36507,544.978888 518.917198,534.843786 500.674015,506.755076 C495.751252,499.226144 488.511893,487.353596 484.457853,480.693387 C476.639346,467.372967 434.07192,425.674264 428.280433,425.674264 C426.542987,425.674264 419.014054,420.461926 412.064271,413.801717 C382.238115,386.002581 318.821337,350.384938 299.130282,350.384938 C286.099437,350.384938 281.755822,353.85983 271.910295,372.103013 C259.748173,394.400236 256.85243,424.515967 261.196045,487.64317 C263.223065,516.600603 265.829234,545.268462 267.277106,551.639097 C269.883275,563.511645 277.701782,639.090545 282.045397,696.426262 C283.493268,714.090296 283.782843,737.545817 282.91412,748.549641 C281.176674,768.53027 273.068593,793.433662 267.856255,793.433662 C266.697957,793.433662 262.643917,798.356426 259.169025,804.727061 C250.771369,819.495352 230.79074,837.738535 212.547558,846.715339 C194.593949,855.981717 164.478219,858.877461 145.655888,853.085974 Z" id="Shape"></path>
                    <path d="M1415.7289,625.190977 C1415.14975,622.874382 1413.70188,605.789497 1412.54358,586.967165 C1411.67486,568.144834 1410.22698,551.059949 1409.35826,548.743354 C1407.91039,545.268462 1401.53975,544.399739 1379.5321,544.399739 C1323.06511,544.399739 1287.15789,527.604428 1269.20429,492.27636 C1259.64833,473.454028 1250.9611,464.766798 1226.63686,449.708933 C1217.08091,443.627872 1197.969,431.176176 1184.35901,421.909798 C1158.58689,404.535338 1130.49818,392.373216 1121.52138,395.268959 C1113.99244,397.585554 1099.51373,414.67044 1091.11607,431.465751 C1081.84969,449.708933 1081.84969,454.631697 1091.40565,454.631697 C1102.40947,454.631697 1141.50201,468.531265 1155.40157,477.218495 C1162.35136,481.56211 1174.51348,493.724231 1182.33199,504.148907 C1193.91496,519.496347 1197.38985,526.446131 1198.83772,537.739529 C1201.15432,558.299307 1193.62539,579.727807 1178.27795,594.496098 C1158.87647,613.318429 1155.98072,614.766301 1144.10817,609.553963 C1119.49436,599.418862 1095.45969,582.62355 1074.89991,561.19505 C1035.22823,520.075495 1025.09313,479.245515 1042.17801,429.149156 C1046.52163,416.987034 1051.15482,405.114487 1052.89226,403.087466 C1054.62971,401.060446 1069.398,392.66279 1085.90373,384.554709 C1122.96925,366.021952 1140.05413,363.705358 1168.72199,373.26131 C1199.41687,383.685986 1215.92261,396.137682 1251.25068,435.809366 L1269.20429,456.079569 L1280.20811,443.338298 L1291.21193,430.597028 L1341.01872,432.334474 C1368.52828,433.203197 1390.8255,433.203197 1390.8255,432.624048 C1390.8255,431.755325 1391.9838,422.488946 1393.72125,411.774696 C1395.16912,401.060446 1398.64401,369.496844 1400.96061,341.697709 C1403.56677,313.898573 1406.46252,286.389012 1407.33124,280.597525 L1408.77911,269.883275 L1380.11125,263.51264 C1364.47424,260.037748 1349.41637,255.694133 1346.23106,254.246261 C1343.33531,252.508815 1325.09213,246.717329 1305.98023,241.215416 C1270.94173,231.080315 1227.21601,211.678835 1208.97282,197.779267 C1203.76049,194.014801 1189.28177,177.509064 1176.5405,161.582476 L1153.66413,132.625043 L1155.112,114.671434 C1159.45561,66.3125214 1171.03859,44.015298 1201.15432,25.7721153 C1232.13877,7.23935823 1263.70237,0 1314.08831,0 C1356.07658,0 1381.26955,6.37063524 1402.69805,22.2972234 C1433.39293,45.1735954 1443.81761,61.9689065 1448.4508,94.111657 C1452.79441,123.937813 1452.21526,177.798638 1447.00292,214.574578 C1444.68633,232.238612 1442.94888,247.006903 1443.52803,247.296477 C1444.10718,247.586052 1451.05696,249.323498 1458.87547,251.060943 C1524.60884,265.53966 1563.99095,277.701782 1599.31902,294.497093 C1619.29965,304.053046 1623.35369,307.238363 1628.27645,317.373465 C1631.46177,323.7441 1634.06794,332.720904 1634.06794,337.064519 C1634.06794,344.883026 1632.90964,344.014303 1611.77072,323.164951 C1585.9986,297.68241 1583.39243,296.813688 1519.68608,285.520289 C1497.38886,281.466248 1471.03759,276.543484 1460.90249,274.806038 C1445.55505,271.620721 1442.08016,271.910295 1438.60527,275.385187 C1431.65548,282.045397 1427.60144,324.033674 1427.31187,386.58173 C1427.02229,447.681913 1429.33889,462.739778 1443.23846,489.959765 C1448.74037,500.674015 1462.92951,509.65082 1475.09163,509.65082 C1483.77886,509.65082 1484.06844,514.284009 1476.5395,531.368894 C1468.721,548.743354 1467.85228,549.032928 1446.71335,541.214421 C1442.94888,539.76655 1440.05314,539.476975 1440.05314,540.056124 C1440.05314,540.924847 1443.23846,555.403564 1447.2925,572.198875 C1451.34654,588.994186 1454.53186,605.210348 1454.53186,608.106091 C1454.53186,619.39949 1418.91421,635.036504 1415.7289,625.190977 Z M1162.93051,569.013557 C1166.98455,558.009733 1167.5637,553.376543 1164.95753,547.585057 C1161.19306,538.029104 1143.52903,519.785921 1125.86499,506.755076 C1118.33606,501.253164 1109.9384,494.30338 1107.33224,491.407637 C1102.1199,485.326576 1084.16629,473.743603 1082.42884,475.191474 C1079.82267,478.087218 1086.48288,521.233793 1090.8265,530.500171 C1099.8033,549.322503 1144.68732,586.677591 1154.82243,583.781848 C1156.2703,583.492273 1160.03476,576.832064 1162.93051,569.013557 Z M1401.25018,514.863157 C1395.74827,480.114238 1389.66721,470.268711 1366.21169,458.975312 C1354.62871,453.183825 1348.25808,451.735954 1342.46659,453.183825 C1333.48979,455.210846 1309.74469,469.399988 1309.74469,472.585305 C1309.74469,478.666366 1336.09596,506.175928 1347.38935,511.67784 C1357.81403,516.890178 1387.06104,525.287833 1400.67103,526.735705 C1402.1189,527.025279 1402.40848,521.523367 1401.25018,514.863157 Z M1414.28102,223.840957 C1416.01847,138.126955 1410.22698,83.1078325 1397.48571,60.2314605 C1389.95678,46.9110413 1372.29275,30.4053046 1359.2619,24.0346693 C1353.18084,21.4285004 1321.32766,27.219987 1285.13087,37.6446628 C1253.2777,46.9110413 1253.2777,46.9110413 1230.98047,68.629116 C1205.78751,93.5325084 1200.57517,105.69463 1203.76049,130.887597 C1207.23538,155.501415 1216.79133,169.111408 1244.59047,188.223314 C1278.18109,211.099686 1352.31212,235.42393 1411.96443,242.952862 C1413.12273,243.242437 1414.28102,234.555207 1414.28102,223.840957 Z" id="Shape"></path>
                    <path d="M971.521875,588.704611 C969.784429,574.515469 967.467834,554.245266 966.599111,542.951867 C964.282516,516.600603 959.938902,493.724231 954.726564,479.535089 C951.251672,470.558285 928.085725,431.755325 922.873387,425.963838 C919.68807,422.488946 907.815522,432.044899 905.788502,439.284258 C904.919779,443.627872 902.892759,447.971487 901.734461,448.84021 C900.576164,449.708933 895.942975,468.24169 891.888934,490.249339 C882.622556,537.449955 870.170859,569.88228 854.244271,586.967165 C847.873636,593.916949 841.792575,599.418862 840.344704,599.418862 C835.711514,599.418862 837.44896,564.959516 845.267467,505.596779 C855.112994,426.832561 862.062778,406.562358 886.966171,380.500669 C901.734461,365.153229 912.738286,363.705358 935.614658,375.288331 C952.989118,383.975561 959.070179,391.504493 971.2323,420.172352 C976.155064,431.755325 981.946551,442.759149 984.263145,445.075744 C990.054632,450.867231 1002.7959,493.145083 1006.27079,519.206772 C1009.74569,543.531016 1006.84994,568.434408 997.583564,591.600355 C993.819098,601.445882 982.236125,613.897578 976.734213,613.897578 C975.575915,613.897578 973.259321,602.604179 971.521875,588.704611 Z" id="Shape"></path>
                    <path d="M750.866236,595.94397 C720.171357,579.727807 718.433911,577.411213 704.244769,532.816766 C700.480303,521.812941 696.715836,512.546563 695.847113,512.546563 C694.97839,512.546563 690.634775,520.944218 686.001586,531.368894 C681.368397,541.79357 674.418613,552.797395 670.654147,555.982712 C663.414788,561.484624 644.882031,566.696962 641.986288,563.801219 C639.959268,561.774199 661.387768,506.755076 664.283511,506.755076 C667.758403,506.755076 683.684991,454.921271 687.449458,430.886602 C689.186904,419.593203 690.055627,405.114487 689.186904,399.033426 C687.739032,388.319176 688.028606,388.029601 708.298809,374.998756 C719.592208,367.759398 729.148161,362.54706 729.72731,363.126209 C730.596033,363.705358 729.437735,385.713007 727.700289,411.774696 C723.646249,466.793819 725.383695,496.3304 733.202202,512.256988 C736.387519,518.338049 747.680918,531.658469 758.684743,541.79357 C769.398993,551.928672 781.27154,563.22207 785.036007,566.986537 L791.696216,573.357172 L803.858338,562.063773 C817.178757,549.032928 821.522372,550.770374 818.626629,567.565685 C815.151737,587.25674 810.808122,591.021206 782.719412,599.418862 L766.792824,604.052051 L750.866236,595.94397 Z" id="Shape"></path>
                    <path d="M1639.85943,539.476975 C1634.64709,523.839962 1632.33049,522.102516 1624.80156,529.0523 C1615.82476,537.160381 1590.34222,544.399739 1570.07201,544.399739 L1553.85585,544.399739 L1533.29607,522.681664 C1522.00267,510.809117 1509.2614,496.040826 1505.49694,489.670191 C1501.4429,483.299556 1496.80971,477.508069 1495.07226,476.349772 C1487.8329,472.006157 1498.54715,432.044899 1511.28842,415.249588 C1520.5548,403.087466 1528.95246,398.454277 1548.93309,394.400236 C1573.25733,389.187899 1582.52371,393.531513 1610.03327,422.199372 C1623.06412,436.09894 1634.64709,446.523616 1635.51581,445.365318 C1636.67411,444.207021 1642.4656,429.43873 1648.83623,412.353845 C1662.7358,373.550885 1665.92112,368.917695 1680.39983,364.574081 C1692.85153,360.809614 1706.7511,364.284506 1726.73173,377.025777 L1736.86683,383.396412 L1717.17577,387.740027 C1705.01365,390.63577 1695.74727,394.400236 1693.43068,397.875128 C1687.06004,406.562358 1677.50409,452.315102 1677.50409,473.743603 C1677.50409,484.747427 1679.24154,501.253164 1681.55813,510.229968 L1685.3226,527.025279 L1666.21069,537.739529 C1655.78601,543.82059 1646.23006,549.032928 1645.07176,549.612077 C1644.20304,550.191226 1641.59687,545.558036 1639.85943,539.476975 Z M1626.53901,507.623799 C1623.93284,501.542738 1621.32667,494.592954 1620.16837,492.27636 C1619.29965,489.959765 1617.5622,487.353596 1616.69348,486.484873 C1615.53518,485.61615 1611.19157,479.535089 1606.84795,472.585305 C1596.71285,456.079569 1580.20711,438.12596 1566.30755,427.990859 L1555.01415,419.882777 L1545.4582,427.122136 C1540.24586,431.176176 1534.74395,434.361494 1533.0065,434.361494 C1528.66288,434.361494 1528.95246,441.890426 1533.87522,446.523616 C1535.90224,448.84021 1539.95628,455.210846 1542.85203,460.423184 C1554.435,483.58913 1577.89052,510.519543 1590.34222,516.021455 C1592.94839,517.179752 1603.08349,518.048475 1613.21859,518.048475 L1631.1722,518.338049 L1626.53901,507.623799 Z" id="Shape"></path>
                </g>
            </g>
        </g>
    </g>
</svg>